<svg version="1.1" viewBox="0.0 0.0 960.0 540.0" fill="none" stroke="none" stroke-linecap="square" stroke-miterlimit="10" xmlns:xlink="http://www.w3.org/1999/xlink" xmlns="http://www.w3.org/2000/svg"><clipPath id="p.0"><path d="m0 0l960.0 0l0 540.0l-960.0 0l0 -540.0z" clip-rule="nonzero"/></clipPath><g clip-path="url(#p.0)"><path fill="#ffffff" d="m0 0l960.0 0l0 540.0l-960.0 0z" fill-rule="evenodd"/><path fill="#000000" fill-opacity="0.0" d="m-68.98688 21.38845l0 0c0 -56.07212 46.202805 -101.52756 103.19685 -101.52756l0 0c27.369507 0 53.61803 10.696625 72.97119 29.736732c19.353165 19.040112 30.225662 44.864044 30.225662 71.790825l0 0c0 56.07212 -46.202812 101.52756 -103.19685 101.52756l0 0c-56.994045 0 -103.19685 -45.455437 -103.19685 -101.52756z" fill-rule="evenodd"/><path stroke="#ffd966" stroke-width="8.0" stroke-linejoin="round" stroke-linecap="butt" d="m-68.98688 21.38845l0 0c0 -56.07212 46.202805 -101.52756 103.19685 -101.52756l0 0c27.369507 0 53.61803 10.696625 72.97119 29.736732c19.353165 19.040112 30.225662 44.864044 30.225662 71.790825l0 0c0 56.07212 -46.202812 101.52756 -103.19685 101.52756l0 0c-56.994045 0 -103.19685 -45.455437 -103.19685 -101.52756z" fill-rule="evenodd"/><path fill="#ffd966" d="m837.5381 502.82678l0 0c0 -56.072144 46.20276 -101.52756 103.19684 -101.52756l0 0c27.369507 0 53.618042 10.696625 72.97119 29.736725c19.353088 19.0401 30.225647 44.864044 30.225647 71.79083l0 0c0 56.072083 -46.20282 101.52753 -103.19684 101.52753l0 0c-56.99408 0 -103.19684 -45.455444 -103.19684 -101.52753z" fill-rule="evenodd"/><path fill="#000000" fill-opacity="0.0" d="m750.7349 -8.104987l241.13385 202.61417" fill-rule="evenodd"/><path stroke="#f1c232" stroke-width="8.0" stroke-linejoin="round" stroke-linecap="butt" d="m750.7349 -8.104987l241.13385 202.61417" fill-rule="evenodd"/><path fill="#000000" fill-opacity="0.0" d="m765.7218 -14.396325l241.13385 202.61418" fill-rule="evenodd"/><path stroke="#f1c232" stroke-width="8.0" stroke-linejoin="round" stroke-linecap="butt" d="m765.7218 -14.396325l241.13385 202.61418" fill-rule="evenodd"/><path fill="#000000" fill-opacity="0.0" d="m775.64307 -24.737534l241.13385 202.61418" fill-rule="evenodd"/><path stroke="#f1c232" stroke-width="8.0" stroke-linejoin="round" stroke-linecap="butt" d="m775.64307 -24.737534l241.13385 202.61418" fill-rule="evenodd"/><path fill="#000000" fill-opacity="0.0" d="m775.64307 -44.95538l241.13385 202.61418" fill-rule="evenodd"/><path stroke="#f1c232" stroke-width="8.0" stroke-linejoin="round" stroke-linecap="butt" d="m775.64307 -44.95538l241.13385 202.61418" fill-rule="evenodd"/><path fill="#000000" fill-opacity="0.0" d="m790.62994 -51.351707l241.13385 202.61417" fill-rule="evenodd"/><path stroke="#f1c232" stroke-width="8.0" stroke-linejoin="round" stroke-linecap="butt" d="m790.62994 -51.351707l241.13385 202.61417" fill-rule="evenodd"/><path fill="#000000" fill-opacity="0.0" d="m800.5512 -61.692913l241.13385 202.61418" fill-rule="evenodd"/><path stroke="#f1c232" stroke-width="8.0" stroke-linejoin="round" stroke-linecap="butt" d="m800.5512 -61.692913l241.13385 202.61418" fill-rule="evenodd"/><path fill="#000000" fill-opacity="0.0" d="m830.3517 -55.602364l241.13391 202.61417" fill-rule="evenodd"/><path stroke="#f1c232" stroke-width="8.0" stroke-linejoin="round" stroke-linecap="butt" d="m830.3517 -55.602364l241.13391 202.61417" fill-rule="evenodd"/><path fill="#000000" fill-opacity="0.0" d="m845.33856 -61.8937l241.13385 202.61417" fill-rule="evenodd"/><path stroke="#f1c232" stroke-width="8.0" stroke-linejoin="round" stroke-linecap="butt" d="m845.33856 -61.8937l241.13385 202.61417" fill-rule="evenodd"/><path fill="#000000" fill-opacity="0.0" d="m855.2598 -72.23491l241.13385 202.61418" fill-rule="evenodd"/><path stroke="#f1c232" stroke-width="8.0" stroke-linejoin="round" stroke-linecap="butt" d="m855.2598 -72.23491l241.13385 202.61418" fill-rule="evenodd"/><path fill="#ffe599" d="m-35.27897 405.3373l144.44936 5.0245667l51.95968 134.88068l-112.3365 78.33624l-121.38747 -86.46619z" fill-rule="evenodd"/><path fill="#000000" fill-opacity="0.0" d="m226.17323 177.87665l507.65356 0l0 124.28345l-507.65356 0z" fill-rule="evenodd"/><path fill="#ffe599" d="m299.52048 186.87665l360.959 0l0 28.799988l-360.959 0l0 -28.799988z" fill-rule="nonzero"/><path fill="#000000" fill-opacity="0.0" d="m299.52048 185.65271l360.959 0l0 32.735916l-360.959 0l0 -32.735916z" fill-rule="nonzero"/><path fill="#000000" d="m312.4111 201.13539q1.484375 0.453125 2.265625 1.53125q0.796875 1.0625 0.796875 2.625q0 1.390625 -0.734375 2.4375q-0.71875 1.03125 -2.078125 1.609375q-1.359375 0.578125 -3.1875 0.578125l-8.421875 0l0 -16.921875l8.1875 0q2.671875 0 4.234375 1.1875q1.578125 1.1875 1.578125 3.203125q0 1.296875 -0.703125 2.296875q-0.6875 1.0 -1.9375 1.453125zm-7.0625 -1.484375l3.140625 0q1.25 0 1.828125 -0.390625q0.578125 -0.390625 0.578125 -1.21875q0 -0.890625 -0.578125 -1.296875q-0.578125 -0.40625 -1.828125 -0.40625l-3.140625 0l0 3.3125zm3.578125 6.921875q1.328125 0 1.890625 -0.40625q0.5625 -0.421875 0.5625 -1.390625q0 -0.953125 -0.5625 -1.375q-0.5625 -0.421875 -1.890625 -0.421875l-3.578125 0l0 3.59375l3.578125 0zm8.804962 3.34375l0 -16.921875l12.03125 0l0 3.40625l-7.734375 0l0 3.21875l7.25 0l0 3.390625l-7.25 0l0 3.5l7.734375 0l0 3.40625l-12.03125 0zm28.015442 -16.921875l3.40625 0l0 16.921875l-3.84375 0l0 -8.875l-3.265625 6.0625l-2.828125 0l-3.234375 -5.921875l-0.03125 8.734375l-3.84375 0l0 -16.921875l3.484375 0l5.09375 9.625l5.0625 -9.625zm25.743805 0l4.46875 0l-7.703125 16.921875l-3.5 0l-7.703125 -16.921875l4.578125 0l4.921875 11.421875l4.9375 -11.421875zm5.472595 16.921875l0 -16.921875l4.421875 0l0 16.921875l-4.421875 0zm18.456726 -16.921875l4.125 0l0 16.921875l-3.25 0l-7.734375 -9.671875l0 9.671875l-4.109375 0l0 -16.921875l3.21875 0l7.75 9.671875l0 -9.671875zm7.199188 0l6.890625 0q2.8125 0 4.828125 1.015625q2.03125 1.0 3.109375 2.90625q1.09375 1.90625 1.09375 4.53125q0 2.640625 -1.078125 4.546875q-1.0625 1.90625 -3.09375 2.921875q-2.03125 1.0 -4.859375 1.0l-6.890625 0l0 -16.921875zm6.578125 13.375q2.5 0 3.71875 -1.21875q1.234375 -1.234375 1.234375 -3.703125q0 -2.46875 -1.234375 -3.6875q-1.21875 -1.21875 -3.71875 -1.21875l-2.15625 0l0 9.828125l2.15625 0zm20.02069 3.765625q-2.59375 0 -4.5 -1.0625q-1.90625 -1.078125 -2.9375 -3.03125q-1.03125 -1.953125 -1.03125 -4.59375q0 -2.640625 1.03125 -4.59375q1.03125 -1.96875 2.9375 -3.015625q1.90625 -1.0625 4.5 -1.0625q2.59375 0 4.5 1.0625q1.90625 1.046875 2.921875 3.015625q1.03125 1.953125 1.03125 4.59375q0 2.640625 -1.046875 4.59375q-1.03125 1.953125 -2.9375 3.03125q-1.90625 1.0625 -4.46875 1.0625zm0 -3.390625q1.921875 0 3.0 -1.34375q1.078125 -1.359375 1.078125 -3.953125q0 -2.59375 -1.09375 -3.9375q-1.09375 -1.34375 -2.984375 -1.34375q-1.921875 0 -3.0 1.328125q-1.078125 1.328125 -1.078125 3.953125q0 2.609375 1.078125 3.953125q1.078125 1.34375 3.0 1.34375zm30.811676 3.171875l-1.515625 -3.5l-7.484375 0l-1.515625 3.5l-4.4375 0l7.90625 -16.921875l3.5 0l7.921875 16.921875l-4.375 0zm-7.578125 -6.8125l4.65625 0l-2.328125 -5.421875l-2.328125 5.421875zm20.542328 7.03125q-2.59375 0 -4.5 -1.0625q-1.90625 -1.078125 -2.9375 -3.03125q-1.03125 -1.953125 -1.03125 -4.59375q0 -2.640625 1.03125 -4.59375q1.03125 -1.96875 2.9375 -3.015625q1.90625 -1.0625 4.5 -1.0625q2.59375 0 4.5 1.0625q1.90625 1.046875 2.921875 3.015625q1.03125 1.953125 1.03125 4.59375q0 2.640625 -1.046875 4.59375q-1.03125 1.953125 -2.9375 3.03125q-1.90625 1.0625 -4.46875 1.0625zm0 -3.390625q1.921875 0 3.0 -1.34375q1.078125 -1.359375 1.078125 -3.953125q0 -2.59375 -1.09375 -3.9375q-1.09375 -1.34375 -2.984375 -1.34375q-1.921875 0 -3.0 1.328125q-1.078125 1.328125 -1.078125 3.953125q0 2.609375 1.078125 3.953125q1.078125 1.34375 3.0 1.34375zm29.280426 -5.609375q1.484375 0.453125 2.265625 1.53125q0.796875 1.0625 0.796875 2.625q0 1.390625 -0.734375 2.4375q-0.71875 1.03125 -2.078125 1.609375q-1.359375 0.578125 -3.1875 0.578125l-8.421875 0l0 -16.921875l8.1875 0q2.671875 0 4.234375 1.1875q1.578125 1.1875 1.578125 3.203125q0 1.296875 -0.703125 2.296875q-0.6875 1.0 -1.9375 1.453125zm-7.0625 -1.484375l3.140625 0q1.25 0 1.828125 -0.390625q0.578125 -0.390625 0.578125 -1.21875q0 -0.890625 -0.578125 -1.296875q-0.578125 -0.40625 -1.828125 -0.40625l-3.140625 0l0 3.3125zm3.578125 6.921875q1.328125 0 1.890625 -0.40625q0.5625 -0.421875 0.5625 -1.390625q0 -0.953125 -0.5625 -1.375q-0.5625 -0.421875 -1.890625 -0.421875l-3.578125 0l0 3.59375l3.578125 0zm8.804962 3.34375l0 -16.921875l12.03125 0l0 3.40625l-7.734375 0l0 3.21875l7.25 0l0 3.390625l-7.25 0l0 3.5l7.734375 0l0 3.40625l-12.03125 0zm42.08258 -16.921875l4.171875 0l-6.046875 16.921875l-3.5 0l-3.578125 -10.15625l-3.625 10.15625l-3.53125 0l-6.03125 -16.921875l4.5 0l3.5 10.734375l3.796875 -10.734375l3.046875 0l3.625 10.921875l3.671875 -10.921875zm6.0132446 16.921875l0 -16.921875l4.421875 0l0 16.921875l-4.421875 0zm11.316162 0l0 -13.34375l-5.078125 0l0 -3.578125l14.59375 0l0 3.578125l-5.0625 0l0 13.34375l-4.453125 0zm22.574219 -16.921875l4.328125 0l0 16.921875l-4.328125 0l0 -6.84375l-6.90625 0l0 6.84375l-4.328125 0l0 -16.921875l4.328125 0l0 6.578125l6.90625 0l0 -6.578125zm29.87854 0l-7.140625 9.390625l0 7.53125l-4.421875 0l0 -7.53125l-7.109375 -9.390625l4.96875 0l4.328125 5.875l4.359375 -5.875l5.015625 0zm7.0858765 17.140625q-2.59375 0 -4.5 -1.0625q-1.90625 -1.078125 -2.9375 -3.03125q-1.03125 -1.953125 -1.03125 -4.59375q0 -2.640625 1.03125 -4.59375q1.03125 -1.96875 2.9375 -3.015625q1.90625 -1.0625 4.5 -1.0625q2.59375 0 4.5 1.0625q1.90625 1.046875 2.921875 3.015625q1.03125 1.953125 1.03125 4.59375q0 2.640625 -1.046875 4.59375q-1.03125 1.953125 -2.9375 3.03125q-1.90625 1.0625 -4.46875 1.0625zm0 -3.390625q1.921875 0 3.0 -1.34375q1.078125 -1.359375 1.078125 -3.953125q0 -2.59375 -1.09375 -3.9375q-1.09375 -1.34375 -2.984375 -1.34375q-1.921875 0 -3.0 1.328125q-1.078125 1.328125 -1.078125 3.953125q0 2.609375 1.078125 3.953125q1.078125 1.34375 3.0 1.34375zm18.447693 3.390625q-3.671875 0 -5.578125 -1.875q-1.90625 -1.875 -1.90625 -5.46875l0 -9.796875l4.328125 0l0 9.96875q0 1.8125 0.8125 2.796875q0.8125 0.984375 2.34375 0.984375q1.546875 0 2.359375 -0.984375q0.8125 -0.984375 0.8125 -2.796875l0 -9.96875l4.34375 0l0 9.796875q0 3.578125 -1.9375 5.46875q-1.921875 1.875 -5.578125 1.875zm10.926819 -6.078125l-1.328125 -11.078125l5.234375 0.015625l-1.34375 11.0625l-2.5625 0zm-0.9375 1.484375l4.4375 0l0 4.375l-4.4375 0l0 -4.375z" fill-rule="nonzero"/><path fill="#000000" fill-opacity="0.0" d="m660.4795 185.65271l0 0l0 32.735916l0 0l0 -32.735916z" fill-rule="nonzero"/><path fill="#000000" d="m305.9504 238.91664l-1.515625 -3.5l-7.484375 0l-1.515625 3.5l-4.4375 0l7.90625 -16.921875l3.5 0l7.921875 16.921875l-4.375 0zm-7.578125 -6.8125l4.65625 0l-2.328125 -5.421875l-2.328125 5.421875zm25.263947 -5.0l0 10.375q0 2.921875 -1.734375 4.4375q-1.734375 1.515625 -5.15625 1.515625q-1.59375 0 -3.109375 -0.375q-1.515625 -0.375 -2.625 -1.046875l1.078125 -2.90625q1.109375 0.578125 2.296875 0.890625q1.1875 0.3125 2.25 0.3125q1.40625 0 2.09375 -0.609375q0.6875 -0.609375 0.6875 -1.9375l0 -0.90625q-0.53125 0.796875 -1.515625 1.265625q-0.984375 0.453125 -2.140625 0.453125q-1.53125 0 -2.734375 -0.71875q-1.1875 -0.71875 -1.859375 -2.046875q-0.671875 -1.328125 -0.671875 -3.078125q0 -1.75 0.671875 -3.09375q0.671875 -1.34375 1.859375 -2.078125q1.203125 -0.734375 2.734375 -0.734375q1.1875 0 2.171875 0.484375q0.984375 0.46875 1.5 1.3125l0 -1.515625l4.203125 0zm-6.578125 8.28125q1.140625 0 1.75 -0.703125q0.625 -0.703125 0.625 -1.953125q0 -1.28125 -0.625 -2.0q-0.609375 -0.71875 -1.75 -0.71875q-1.09375 0 -1.71875 0.71875q-0.625 0.703125 -0.625 2.0q0 1.25 0.625 1.953125q0.640625 0.703125 1.71875 0.703125zm15.033447 3.71875q-1.953125 0 -3.4375 -0.75q-1.46875 -0.75 -2.265625 -2.140625q-0.796875 -1.40625 -0.796875 -3.265625q0 -1.875 0.796875 -3.25q0.796875 -1.390625 2.265625 -2.125q1.46875 -0.75 3.4375 -0.75q1.96875 0 3.421875 0.75q1.46875 0.734375 2.265625 2.125q0.8125 1.375 0.8125 3.25q0 1.859375 -0.8125 3.265625q-0.796875 1.390625 -2.265625 2.140625q-1.453125 0.75 -3.421875 0.75zm0 -3.1875q2.28125 0 2.28125 -2.96875q0 -2.984375 -2.28125 -2.984375q-2.28125 0 -2.28125 2.984375q0 2.96875 2.28125 2.96875zm17.540588 -5.609375l-2.328125 0.234375q-1.390625 0.140625 -1.953125 0.75q-0.546875 0.59375 -0.546875 1.703125l0 5.921875l-4.265625 0l0 -11.8125l4.046875 0l0 2.046875q0.421875 -1.078125 1.34375 -1.640625q0.9375 -0.5625 2.28125 -0.640625l1.1875 -0.09375l0.234375 3.53125zm6.3768616 -3.484375q2.796875 0 4.125 1.28125q1.328125 1.28125 1.328125 4.0l0 6.8125l-4.0 0l0 -1.65625q-0.34375 0.859375 -1.140625 1.359375q-0.78125 0.484375 -1.890625 0.484375q-1.21875 0 -2.203125 -0.484375q-0.984375 -0.5 -1.546875 -1.375q-0.5625 -0.875 -0.5625 -1.96875q0 -1.28125 0.65625 -2.03125q0.65625 -0.765625 2.09375 -1.09375q1.4375 -0.34375 3.890625 -0.34375l0.65625 0l0 -0.28125q0 -0.890625 -0.421875 -1.234375q-0.40625 -0.34375 -1.4375 -0.34375q-0.8125 0 -1.890625 0.328125q-1.0625 0.3125 -2.0 0.8125l-1.078125 -2.796875q1.03125 -0.625 2.578125 -1.046875q1.5625 -0.421875 2.84375 -0.421875zm-0.5625 9.4375q0.859375 0 1.40625 -0.609375q0.5625 -0.625 0.5625 -1.578125l0 -0.296875l-0.390625 0q-1.53125 0 -2.1875 0.28125q-0.640625 0.28125 -0.640625 0.921875q0 0.546875 0.34375 0.921875q0.34375 0.359375 0.90625 0.359375zm23.346313 -9.125l4.171875 0l-5.25 11.78125l-3.53125 0l-5.1875 -11.78125l4.46875 0l2.59375 6.640625l2.734375 -6.640625zm10.610565 11.96875q-1.953125 0 -3.4375 -0.75q-1.46875 -0.75 -2.265625 -2.140625q-0.796875 -1.40625 -0.796875 -3.265625q0 -1.875 0.796875 -3.25q0.796875 -1.390625 2.265625 -2.125q1.46875 -0.75 3.4375 -0.75q1.96875 0 3.421875 0.75q1.46875 0.734375 2.265625 2.125q0.8125 1.375 0.8125 3.25q0 1.859375 -0.8125 3.265625q-0.796875 1.390625 -2.265625 2.140625q-1.453125 0.75 -3.421875 0.75zm0 -3.1875q2.28125 0 2.28125 -2.96875q0 -2.984375 -2.28125 -2.984375q-2.28125 0 -2.28125 2.984375q0 2.96875 2.28125 2.96875zm14.321838 3.1875q-3.015625 0 -4.71875 -1.625q-1.703125 -1.640625 -1.703125 -4.4375q0 -1.859375 0.828125 -3.265625q0.828125 -1.421875 2.328125 -2.1875q1.5 -0.765625 3.453125 -0.765625q1.328125 0 2.5625 0.390625q1.234375 0.375 2.0 1.015625l-1.078125 2.890625q-0.59375 -0.484375 -1.453125 -0.78125q-0.84375 -0.296875 -1.59375 -0.296875q-1.296875 0 -1.984375 0.71875q-0.671875 0.71875 -0.671875 2.1875q0 1.453125 0.671875 2.203125q0.6875 0.734375 1.984375 0.734375q0.75 0 1.59375 -0.296875q0.859375 -0.296875 1.453125 -0.796875l1.078125 2.90625q-0.8125 0.671875 -2.078125 1.046875q-1.25 0.359375 -2.671875 0.359375zm17.015594 -5.28125l-7.296875 0q0.203125 1.15625 0.84375 1.671875q0.65625 0.5 1.84375 0.5q0.875 0 1.75 -0.28125q0.890625 -0.296875 1.59375 -0.8125l1.078125 2.8125q-0.890625 0.65625 -2.140625 1.03125q-1.25 0.359375 -2.5 0.359375q-2.03125 0 -3.53125 -0.734375q-1.484375 -0.75 -2.28125 -2.140625q-0.796875 -1.390625 -0.796875 -3.265625q0 -1.78125 0.75 -3.171875q0.75 -1.40625 2.109375 -2.1875q1.359375 -0.78125 3.0625 -0.78125q2.546875 0 4.03125 1.625q1.484375 1.609375 1.484375 4.421875l0 0.953125zm-5.390625 -4.125q-1.703125 0 -1.953125 2.109375l3.765625 0q-0.140625 -2.109375 -1.8125 -2.109375zm-1.40625 -4.125l-3.1875 0l3.234375 -4.9375l2.453125 0l3.234375 4.9375l-3.1875 0l-1.265625 -2.546875l-1.28125 2.546875zm22.657074 10.46875q0.53125 0 1.1875 -0.078125l-0.21875 3.046875q-0.765625 0.09375 -1.484375 0.09375q-2.890625 0 -4.203125 -1.203125q-1.296875 -1.21875 -1.296875 -3.765625l0 -3.875l-2.203125 0l0 -3.15625l2.203125 0l0 -3.421875l4.265625 0l0 3.421875l2.84375 0l0 3.15625l-2.84375 0l0 3.90625q0 1.875 1.75 1.875zm13.563721 -2.21875l-7.296875 0q0.203125 1.15625 0.84375 1.671875q0.65625 0.5 1.84375 0.5q0.875 0 1.75 -0.28125q0.890625 -0.296875 1.59375 -0.8125l1.078125 2.8125q-0.890625 0.65625 -2.140625 1.03125q-1.25 0.359375 -2.5 0.359375q-2.03125 0 -3.53125 -0.734375q-1.484375 -0.75 -2.28125 -2.140625q-0.796875 -1.390625 -0.796875 -3.265625q0 -1.78125 0.75 -3.171875q0.75 -1.40625 2.109375 -2.1875q1.359375 -0.78125 3.0625 -0.78125q2.546875 0 4.03125 1.625q1.484375 1.609375 1.484375 4.421875l0 0.953125zm-5.390625 -4.125q-1.703125 0 -1.953125 2.109375l3.765625 0q-0.140625 -2.109375 -1.8125 -2.109375zm22.402466 -2.875q2.078125 0 3.0625 1.25q1.0 1.25 1.0 3.828125l0 7.015625l-4.265625 0l0 -6.890625q0 -1.03125 -0.3125 -1.484375q-0.3125 -0.453125 -1.03125 -0.453125q-0.890625 0 -1.359375 0.625q-0.46875 0.625 -0.46875 1.765625l0 6.4375l-4.28125 0l0 -6.890625q0 -1.03125 -0.3125 -1.484375q-0.296875 -0.453125 -1.03125 -0.453125q-0.875 0 -1.34375 0.625q-0.453125 0.625 -0.453125 1.765625l0 6.4375l-4.265625 0l0 -11.8125l4.15625 0l0 1.5q1.171875 -1.78125 3.59375 -1.78125q2.546875 0 3.4375 2.078125q0.625 -0.96875 1.640625 -1.515625q1.015625 -0.5625 2.234375 -0.5625zm19.204407 12.28125q-3.015625 0 -4.7187195 -1.625q-1.703125 -1.640625 -1.703125 -4.4375q0 -1.859375 0.828125 -3.265625q0.828125 -1.421875 2.3280945 -2.1875q1.5 -0.765625 3.453125 -0.765625q1.328125 0 2.5625 0.390625q1.234375 0.375 2.0 1.015625l-1.078125 2.890625q-0.59375 -0.484375 -1.453125 -0.78125q-0.84375 -0.296875 -1.59375 -0.296875q-1.296875 0 -1.984375 0.71875q-0.671875 0.71875 -0.671875 2.1875q0 1.453125 0.671875 2.203125q0.6875 0.734375 1.984375 0.734375q0.75 0 1.59375 -0.296875q0.859375 -0.296875 1.453125 -0.796875l1.078125 2.90625q-0.8125 0.671875 -2.078125 1.046875q-1.25 0.359375 -2.671875 0.359375zm12.078125 0q-1.953125 0 -3.4375 -0.75q-1.46875 -0.75 -2.265625 -2.140625q-0.796875 -1.40625 -0.796875 -3.265625q0 -1.875 0.796875 -3.25q0.796875 -1.390625 2.265625 -2.125q1.46875 -0.75 3.4375 -0.75q1.96875 0 3.421875 0.75q1.46875 0.734375 2.265625 2.125q0.8125 1.375 0.8125 3.25q0 1.859375 -0.8125 3.265625q-0.796875 1.390625 -2.265625 2.140625q-1.453125 0.75 -3.421875 0.75zm0 -3.1875q2.28125 0 2.28125 -2.96875q0 -2.984375 -2.28125 -2.984375q-2.28125 0 -2.28125 2.984375q0 2.96875 2.28125 2.96875zm23.509338 -9.09375q2.078125 0 3.0625 1.25q1.0 1.25 1.0 3.828125l0 7.015625l-4.265625 0l0 -6.890625q0 -1.03125 -0.3125 -1.484375q-0.3125 -0.453125 -1.03125 -0.453125q-0.890625 0 -1.359375 0.625q-0.46875 0.625 -0.46875 1.765625l0 6.4375l-4.28125 0l0 -6.890625q0 -1.03125 -0.3125 -1.484375q-0.296875 -0.453125 -1.03125 -0.453125q-0.875 0 -1.34375 0.625q-0.453125 0.625 -0.453125 1.765625l0 6.4375l-4.265625 0l0 -11.8125l4.15625 0l0 1.5q1.171875 -1.78125 3.59375 -1.78125q2.546875 0 3.4375 2.078125q0.625 -0.96875 1.640625 -1.515625q1.015625 -0.5625 2.234375 -0.5625zm14.293579 0q1.5 0 2.6875 0.78125q1.1875 0.78125 1.84375 2.203125q0.671875 1.40625 0.671875 3.234375q0 1.8125 -0.671875 3.203125q-0.65625 1.375 -1.828125 2.125q-1.171875 0.734375 -2.703125 0.734375q-1.140625 0 -2.09375 -0.453125q-0.9375 -0.453125 -1.46875 -1.21875l0 5.796875l-4.265625 0l0 -16.125l4.203125 0l0 1.515625q0.5 -0.84375 1.46875 -1.3125q0.96875 -0.484375 2.15625 -0.484375zm-1.296875 9.09375q1.09375 0 1.6875 -0.734375q0.59375 -0.75 0.59375 -2.140625q0 -1.46875 -0.609375 -2.25q-0.59375 -0.78125 -1.703125 -0.78125q-1.109375 0 -1.703125 0.765625q-0.59375 0.765625 -0.59375 2.21875q0 1.40625 0.59375 2.171875q0.59375 0.75 1.734375 0.75zm8.468689 3.0l0 -16.921875l4.265625 0l0 16.921875l-4.265625 0zm17.634583 -5.09375l-7.296875 0q0.203125 1.15625 0.84375 1.671875q0.65625 0.5 1.84375 0.5q0.875 0 1.75 -0.28125q0.890625 -0.296875 1.59375 -0.8125l1.078125 2.8125q-0.890625 0.65625 -2.140625 1.03125q-1.25 0.359375 -2.5 0.359375q-2.03125 0 -3.53125 -0.734375q-1.484375 -0.75 -2.28125 -2.140625q-0.796875 -1.390625 -0.796875 -3.265625q0 -1.78125 0.75 -3.171875q0.75 -1.40625 2.109375 -2.1875q1.359375 -0.78125 3.0625 -0.78125q2.546875 0 4.03125 1.625q1.484375 1.609375 1.484375 4.421875l0 0.953125zm-5.390625 -4.125q-1.703125 0 -1.953125 2.109375l3.765625 0q-0.140625 -2.109375 -1.8125 -2.109375zm14.098877 6.34375q0.53125 0 1.1875 -0.078125l-0.21875 3.046875q-0.765625 0.09375 -1.484375 0.09375q-2.890625 0 -4.203125 -1.203125q-1.296875 -1.21875 -1.296875 -3.765625l0 -3.875l-2.203125 0l0 -3.15625l2.203125 0l0 -3.421875l4.265625 0l0 3.421875l2.84375 0l0 3.15625l-2.84375 0l0 3.90625q0 1.875 1.75 1.875zm8.626221 3.0625q-1.953125 0 -3.4375 -0.75q-1.46875 -0.75 -2.265625 -2.140625q-0.796875 -1.40625 -0.796875 -3.265625q0 -1.875 0.796875 -3.25q0.796875 -1.390625 2.265625 -2.125q1.46875 -0.75 3.4375 -0.75q1.96875 0 3.421875 0.75q1.46875 0.734375 2.265625 2.125q0.8125 1.375 0.8125 3.25q0 1.859375 -0.8125 3.265625q-0.796875 1.390625 -2.265625 2.140625q-1.453125 0.75 -3.421875 0.75zm0 -3.1875q2.28125 0 2.28125 -2.96875q0 -2.984375 -2.28125 -2.984375q-2.28125 0 -2.28125 2.984375q0 2.96875 2.28125 2.96875zm20.701416 -9.09375q2.796875 0 4.125 1.28125q1.328125 1.28125 1.328125 4.0l0 6.8125l-4.0 0l0 -1.65625q-0.34375 0.859375 -1.140625 1.359375q-0.78125 0.484375 -1.890625 0.484375q-1.21875 0 -2.203125 -0.484375q-0.984375 -0.5 -1.546875 -1.375q-0.5625 -0.875 -0.5625 -1.96875q0 -1.28125 0.65625 -2.03125q0.65625 -0.765625 2.09375 -1.09375q1.4375 -0.34375 3.890625 -0.34375l0.65625 0l0 -0.28125q0 -0.890625 -0.421875 -1.234375q-0.40625 -0.34375 -1.4375 -0.34375q-0.8125 0 -1.890625 0.328125q-1.0625 0.3125 -2.0 0.8125l-1.078125 -2.796875q1.03125 -0.625 2.578125 -1.046875q1.5625 -0.421875 2.84375 -0.421875zm-0.5625 9.4375q0.859375 0 1.40625 -0.609375q0.5625 -0.625 0.5625 -1.578125l0 -0.296875l-0.390625 0q-1.53125 0 -2.1875 0.28125q-0.640625 0.28125 -0.640625 0.921875q0 0.546875 0.34375 0.921875q0.34375 0.359375 0.90625 0.359375zm14.294861 2.84375q-3.015625 0 -4.71875 -1.625q-1.703125 -1.640625 -1.703125 -4.4375q0 -1.859375 0.828125 -3.265625q0.828125 -1.421875 2.328125 -2.1875q1.5 -0.765625 3.453125 -0.765625q1.328125 0 2.5625 0.390625q1.234375 0.375 2.0 1.015625l-1.078125 2.890625q-0.59375 -0.484375 -1.453125 -0.78125q-0.84375 -0.296875 -1.59375 -0.296875q-1.296875 0 -1.984375 0.71875q-0.671875 0.71875 -0.671875 2.1875q0 1.453125 0.671875 2.203125q0.6875 0.734375 1.984375 0.734375q0.75 0 1.59375 -0.296875q0.859375 -0.296875 1.453125 -0.796875l1.078125 2.90625q-0.8125 0.671875 -2.078125 1.046875q-1.25 0.359375 -2.671875 0.359375zm17.015564 -5.28125l-7.296875 0q0.203125 1.15625 0.84375 1.671875q0.65625 0.5 1.84375 0.5q0.875 0 1.75 -0.28125q0.890625 -0.296875 1.59375 -0.8125l1.078125 2.8125q-0.890625 0.65625 -2.140625 1.03125q-1.25 0.359375 -2.5 0.359375q-2.03125 0 -3.53125 -0.734375q-1.484375 -0.75 -2.28125 -2.140625q-0.796875 -1.390625 -0.796875 -3.265625q0 -1.78125 0.75 -3.171875q0.75 -1.40625 2.109375 -2.1875q1.359375 -0.78125 3.0625 -0.78125q2.546875 0 4.03125 1.625q1.484375 1.609375 1.484375 4.421875l0 0.953125zm-5.390625 -4.125q-1.703125 0 -1.953125 2.109375l3.765625 0q-0.140625 -2.109375 -1.8125 -2.109375zm12.089966 9.40625q-1.703125 0 -3.140625 -0.359375q-1.4375 -0.359375 -2.421875 -1.046875l1.078125 -2.90625q0.953125 0.625 2.171875 1.0q1.234375 0.359375 2.359375 0.359375q0.703125 0 1.078125 -0.203125q0.390625 -0.203125 0.390625 -0.5625q0 -0.3125 -0.28125 -0.46875q-0.28125 -0.171875 -1.109375 -0.375l-1.90625 -0.421875q-1.796875 -0.40625 -2.59375 -1.203125q-0.78125 -0.796875 -0.78125 -2.25q0 -1.140625 0.671875 -2.015625q0.671875 -0.875 1.875 -1.34375q1.21875 -0.484375 2.75 -0.484375q1.28125 0 2.53125 0.375q1.265625 0.359375 2.296875 1.03125l-1.109375 2.796875q-0.953125 -0.609375 -1.9375 -0.921875q-0.96875 -0.328125 -1.828125 -0.328125q-0.6875 0 -1.078125 0.21875q-0.390625 0.203125 -0.390625 0.625q0 0.234375 0.234375 0.390625q0.25 0.15625 0.859375 0.296875l1.984375 0.453125q1.875 0.40625 2.703125 1.265625q0.84375 0.84375 0.84375 2.3125q0 1.75 -1.40625 2.765625q-1.390625 1.0 -3.84375 1.0zm11.759949 0q-1.703125 0 -3.140625 -0.359375q-1.4375 -0.359375 -2.421875 -1.046875l1.078125 -2.90625q0.953125 0.625 2.171875 1.0q1.234375 0.359375 2.359375 0.359375q0.703125 0 1.078125 -0.203125q0.390625 -0.203125 0.390625 -0.5625q0 -0.3125 -0.28125 -0.46875q-0.28125 -0.171875 -1.109375 -0.375l-1.90625 -0.421875q-1.796875 -0.40625 -2.59375 -1.203125q-0.78125 -0.796875 -0.78125 -2.25q0 -1.140625 0.671875 -2.015625q0.671875 -0.875 1.875 -1.34375q1.21875 -0.484375 2.75 -0.484375q1.28125 0 2.53125 0.375q1.265625 0.359375 2.296875 1.03125l-1.109375 2.796875q-0.953125 -0.609375 -1.9375 -0.921875q-0.96875 -0.328125 -1.828125 -0.328125q-0.6875 0 -1.078125 0.21875q-0.390625 0.203125 -0.390625 0.625q0 0.234375 0.234375 0.390625q0.25 0.15625 0.859375 0.296875l1.984375 0.453125q1.875 0.40625 2.703125 1.265625q0.84375 0.84375 0.84375 2.3125q0 1.75 -1.40625 2.765625q-1.390625 1.0 -3.84375 1.0zm12.963074 0q-1.953125 0 -3.4375 -0.75q-1.46875 -0.75 -2.265625 -2.140625q-0.796875 -1.40625 -0.796875 -3.265625q0 -1.875 0.796875 -3.25q0.796875 -1.390625 2.265625 -2.125q1.46875 -0.75 3.4375 -0.75q1.96875 0 3.421875 0.75q1.46875 0.734375 2.265625 2.125q0.8125 1.375 0.8125 3.25q0 1.859375 -0.8125 3.265625q-0.796875 1.390625 -2.265625 2.140625q-1.453125 0.75 -3.421875 0.75zm0 -3.1875q2.28125 0 2.28125 -2.96875q0 -2.984375 -2.28125 -2.984375q-2.28125 0 -2.28125 2.984375q0 2.96875 2.28125 2.96875z" fill-rule="nonzero"/><path fill="#000000" d="m278.72922 255.82289q2.796875 0 4.125 1.2812653q1.328125 1.28125 1.328125 4.0l0 6.8125l-4.0 0l0 -1.65625q-0.34375 0.859375 -1.140625 1.359375q-0.78125 0.484375 -1.890625 0.484375q-1.21875 0 -2.203125 -0.484375q-0.984375 -0.5 -1.546875 -1.375q-0.5625 -0.875 -0.5625 -1.96875q0 -1.28125 0.65625 -2.03125q0.65625 -0.765625 2.09375 -1.09375q1.4375 -0.34375 3.890625 -0.34375l0.65625 0l0 -0.28125q0 -0.890625 -0.421875 -1.234375q-0.40625 -0.34375 -1.4375 -0.34375q-0.8125 0 -1.890625 0.328125q-1.0625 0.3125 -2.0 0.8125l-1.078125 -2.796875q1.03125 -0.625 2.578125 -1.046875q1.5625 -0.42189026 2.84375 -0.42189026zm-0.5625 9.437515q0.859375 0 1.40625 -0.609375q0.5625 -0.625 0.5625 -1.578125l0 -0.296875l-0.390625 0q-1.53125 0 -2.1875 0.28125q-0.640625 0.28125 -0.640625 0.921875q0 0.546875 0.34375 0.921875q0.34375 0.359375 0.90625 0.359375zm13.16983 2.84375q-1.703125 0 -3.140625 -0.359375q-1.4375 -0.359375 -2.421875 -1.046875l1.078125 -2.90625q0.953125 0.625 2.171875 1.0q1.234375 0.359375 2.359375 0.359375q0.703125 0 1.078125 -0.203125q0.390625 -0.203125 0.390625 -0.5625q0 -0.3125 -0.28125 -0.46875q-0.28125 -0.171875 -1.109375 -0.375l-1.90625 -0.421875q-1.796875 -0.40625 -2.59375 -1.203125q-0.78125 -0.796875 -0.78125 -2.25q0 -1.140625 0.671875 -2.015625q0.671875 -0.875 1.875 -1.34375q1.21875 -0.48439026 2.75 -0.48439026q1.28125 0 2.53125 0.37501526q1.265625 0.359375 2.296875 1.03125l-1.109375 2.796875q-0.953125 -0.609375 -1.9375 -0.921875q-0.96875 -0.328125 -1.828125 -0.328125q-0.6875 0 -1.078125 0.21875q-0.390625 0.203125 -0.390625 0.625q0 0.234375 0.234375 0.390625q0.25 0.15625 0.859375 0.296875l1.984375 0.453125q1.875 0.40625 2.703125 1.265625q0.84375 0.84375 0.84375 2.3125q0 1.75 -1.40625 2.765625q-1.390625 1.0 -3.84375 1.0zm21.811462 -12.281265q2.109375 0 3.140625 1.2656403q1.046875 1.25 1.046875 3.8125l0 7.015625l-4.28125 0l0 -6.8125q0 -1.0625 -0.375 -1.53125q-0.359375 -0.484375 -1.109375 -0.484375q-0.96875 0 -1.53125 0.609375q-0.5625 0.609375 -0.5625 1.640625l0 6.578125l-4.265625 0l0 -11.8125l4.15625 0l0 1.59375q0.625 -0.921875 1.59375 -1.390625q0.984375 -0.48439026 2.1875 -0.48439026zm12.5355835 12.281265q-1.953125 0 -3.4375 -0.75q-1.46875 -0.75 -2.265625 -2.140625q-0.796875 -1.40625 -0.796875 -3.265625q0 -1.875 0.796875 -3.25q0.796875 -1.390625 2.265625 -2.125q1.46875 -0.75001526 3.4375 -0.75001526q1.96875 0 3.421875 0.75001526q1.46875 0.734375 2.265625 2.125q0.8125 1.375 0.8125 3.25q0 1.859375 -0.8125 3.265625q-0.796875 1.390625 -2.265625 2.140625q-1.453125 0.75 -3.421875 0.75zm0 -3.1875q2.28125 0 2.28125 -2.96875q0 -2.984375 -2.28125 -2.984375q-2.28125 0 -2.28125 2.984375q0 2.96875 2.28125 2.96875zm13.196838 3.1875q-1.703125 0 -3.140625 -0.359375q-1.4375 -0.359375 -2.421875 -1.046875l1.078125 -2.90625q0.953125 0.625 2.171875 1.0q1.234375 0.359375 2.359375 0.359375q0.703125 0 1.078125 -0.203125q0.390625 -0.203125 0.390625 -0.5625q0 -0.3125 -0.28125 -0.46875q-0.28125 -0.171875 -1.109375 -0.375l-1.90625 -0.421875q-1.796875 -0.40625 -2.59375 -1.203125q-0.78125 -0.796875 -0.78125 -2.25q0 -1.140625 0.671875 -2.015625q0.671875 -0.875 1.875 -1.34375q1.21875 -0.48439026 2.75 -0.48439026q1.28125 0 2.53125 0.37501526q1.265625 0.359375 2.296875 1.03125l-1.109375 2.796875q-0.953125 -0.609375 -1.9375 -0.921875q-0.96875 -0.328125 -1.828125 -0.328125q-0.6875 0 -1.078125 0.21875q-0.390625 0.203125 -0.390625 0.625q0 0.234375 0.234375 0.390625q0.25 0.15625 0.859375 0.296875l1.984375 0.453125q1.875 0.40625 2.703125 1.265625q0.84375 0.84375 0.84375 2.3125q0 1.75 -1.40625 2.765625q-1.390625 1.0 -3.84375 1.0zm11.759949 0q-1.703125 0 -3.140625 -0.359375q-1.4375 -0.359375 -2.421875 -1.046875l1.078125 -2.90625q0.953125 0.625 2.171875 1.0q1.234375 0.359375 2.359375 0.359375q0.703125 0 1.078125 -0.203125q0.390625 -0.203125 0.390625 -0.5625q0 -0.3125 -0.28125 -0.46875q-0.28125 -0.171875 -1.109375 -0.375l-1.90625 -0.421875q-1.796875 -0.40625 -2.59375 -1.203125q-0.78125 -0.796875 -0.78125 -2.25q0 -1.140625 0.671875 -2.015625q0.671875 -0.875 1.875 -1.34375q1.21875 -0.48439026 2.75 -0.48439026q1.28125 0 2.53125 0.37501526q1.265625 0.359375 2.296875 1.03125l-1.109375 2.796875q-0.953125 -0.609375 -1.9375 -0.921875q-0.96875 -0.328125 -1.828125 -0.328125q-0.6875 0 -1.078125 0.21875q-0.390625 0.203125 -0.390625 0.625q0 0.234375 0.234375 0.390625q0.25 0.15625 0.859375 0.296875l1.984375 0.453125q1.875 0.40625 2.703125 1.265625q0.84375 0.84375 0.84375 2.3125q0 1.75 -1.40625 2.765625q-1.390625 1.0 -3.84375 1.0zm12.400604 -12.281265q2.796875 0 4.125 1.2812653q1.328125 1.28125 1.328125 4.0l0 6.8125l-4.0 0l0 -1.65625q-0.34375 0.859375 -1.140625 1.359375q-0.78125 0.484375 -1.890625 0.484375q-1.21875 0 -2.203125 -0.484375q-0.984375 -0.5 -1.546875 -1.375q-0.5625 -0.875 -0.5625 -1.96875q0 -1.28125 0.65625 -2.03125q0.65625 -0.765625 2.09375 -1.09375q1.4375 -0.34375 3.890625 -0.34375l0.65625 0l0 -0.28125q0 -0.890625 -0.421875 -1.234375q-0.40625 -0.34375 -1.4375 -0.34375q-0.8125 0 -1.890625 0.328125q-1.0625 0.3125 -2.0 0.8125l-1.078125 -2.796875q1.03125 -0.625 2.578125 -1.046875q1.5625 -0.42189026 2.84375 -0.42189026zm-0.5625 9.437515q0.859375 0 1.40625 -0.609375q0.5625 -0.625 0.5625 -1.578125l0 -0.296875l-0.390625 0q-1.53125 0 -2.1875 0.28125q-0.640625 0.28125 -0.640625 0.921875q0 0.546875 0.34375 0.921875q0.34375 0.359375 0.90625 0.359375zm13.16983 2.84375q-1.703125 0 -3.140625 -0.359375q-1.4375 -0.359375 -2.421875 -1.046875l1.078125 -2.90625q0.953125 0.625 2.171875 1.0q1.234375 0.359375 2.359375 0.359375q0.703125 0 1.078125 -0.203125q0.390625 -0.203125 0.390625 -0.5625q0 -0.3125 -0.28125 -0.46875q-0.28125 -0.171875 -1.109375 -0.375l-1.90625 -0.421875q-1.796875 -0.40625 -2.59375 -1.203125q-0.78125 -0.796875 -0.78125 -2.25q0 -1.140625 0.671875 -2.015625q0.671875 -0.875 1.875 -1.34375q1.21875 -0.48439026 2.75 -0.48439026q1.28125 0 2.53125 0.37501526q1.265625 0.359375 2.296875 1.03125l-1.109375 2.796875q-0.953125 -0.609375 -1.9375 -0.921875q-0.96875 -0.328125 -1.828125 -0.328125q-0.6875 0 -1.078125 0.21875q-0.390625 0.203125 -0.390625 0.625q0 0.234375 0.234375 0.390625q0.25 0.15625 0.859375 0.296875l1.984375 0.453125q1.875 0.40625 2.703125 1.265625q0.84375 0.84375 0.84375 2.3125q0 1.75 -1.40625 2.765625q-1.390625 1.0 -3.84375 1.0zm19.170807 -12.0l2.84375 0l0 3.15625l-2.84375 0l0 8.65625l-4.265625 0l0 -8.65625l-2.203125 0l0 -3.15625l2.203125 0q0.125 -2.4687653 1.625 -3.7187653q1.5 -1.265625 4.5 -1.4375l1.453125 -0.09375l0.25 3.09375l-1.140625 0.046875q-1.359375 0.046875 -1.890625 0.40625q-0.53125 0.359375 -0.53125 1.28125l0 0.42189026zm14.929749 6.71875l-7.296875 0q0.203125 1.15625 0.84375 1.671875q0.65625 0.5 1.84375 0.5q0.875 0 1.75 -0.28125q0.890625 -0.296875 1.59375 -0.8125l1.078125 2.8125q-0.890625 0.65625 -2.140625 1.03125q-1.25 0.359375 -2.5 0.359375q-2.03125 0 -3.53125 -0.734375q-1.484375 -0.75 -2.28125 -2.140625q-0.796875 -1.390625 -0.796875 -3.265625q0 -1.78125 0.75 -3.171875q0.75 -1.40625 2.109375 -2.1875q1.359375 -0.78126526 3.0625 -0.78126526q2.546875 0 4.03125 1.6250153q1.484375 1.609375 1.484375 4.421875l0 0.953125zm-5.390625 -4.125q-1.703125 0 -1.953125 2.109375l3.765625 0q-0.140625 -2.109375 -1.8125 -2.109375zm16.433716 0.609375l-2.328125 0.234375q-1.390625 0.140625 -1.953125 0.75q-0.546875 0.59375 -0.546875 1.703125l0 5.921875l-4.265625 0l0 -11.8125l4.046875 0l0 2.046875q0.421875 -1.078125 1.34375 -1.640625q0.9375 -0.56251526 2.28125 -0.64064026l1.1875 -0.09375l0.234375 3.5312653zm10.055969 0l-2.328125 0.234375q-1.390625 0.140625 -1.953125 0.75q-0.546875 0.59375 -0.546875 1.703125l0 5.921875l-4.265625 0l0 -11.8125l4.046875 0l0 2.046875q0.421875 -1.078125 1.34375 -1.640625q0.9375 -0.56251526 2.28125 -0.64064026l1.1875 -0.09375l0.234375 3.5312653zm6.376831 -3.4843903q2.796875 0 4.125 1.2812653q1.328125 1.28125 1.328125 4.0l0 6.8125l-4.0 0l0 -1.65625q-0.34375 0.859375 -1.140625 1.359375q-0.78125 0.484375 -1.890625 0.484375q-1.21875 0 -2.203125 -0.484375q-0.984375 -0.5 -1.546875 -1.375q-0.5625 -0.875 -0.5625 -1.96875q0 -1.28125 0.65625 -2.03125q0.65625 -0.765625 2.09375 -1.09375q1.4375 -0.34375 3.890625 -0.34375l0.65625 0l0 -0.28125q0 -0.890625 -0.421875 -1.234375q-0.40625 -0.34375 -1.4375 -0.34375q-0.8125 0 -1.890625 0.328125q-1.0625 0.3125 -2.0 0.8125l-1.078125 -2.796875q1.03125 -0.625 2.578125 -1.046875q1.5625 -0.42189026 2.84375 -0.42189026zm-0.5625 9.437515q0.859375 0 1.40625 -0.609375q0.5625 -0.625 0.5625 -1.578125l0 -0.296875l-0.390625 0q-1.53125 0 -2.1875 0.28125q-0.640625 0.28125 -0.640625 0.921875q0 0.546875 0.34375 0.921875q0.34375 0.359375 0.90625 0.359375zm23.48233 -9.437515q2.078125 0 3.0625 1.2500153q1.0 1.25 1.0 3.828125l0 7.015625l-4.265625 0l0 -6.890625q0 -1.03125 -0.3125 -1.484375q-0.3125 -0.453125 -1.03125 -0.453125q-0.890625 0 -1.359375 0.625q-0.46875 0.625 -0.46875 1.765625l0 6.4375l-4.28125 0l0 -6.890625q0 -1.03125 -0.3125 -1.484375q-0.296875 -0.453125 -1.03125 -0.453125q-0.875 0 -1.34375 0.625q-0.453125 0.625 -0.453125 1.765625l0 6.4375l-4.265625 0l0 -11.8125l4.15625 0l0 1.5q1.171875 -1.7812653 3.59375 -1.7812653q2.546875 0 3.4375 2.0781403q0.625 -0.96875 1.640625 -1.515625q1.015625 -0.56251526 2.234375 -0.56251526zm17.35608 7.0000153l-7.296875 0q0.203125 1.15625 0.84375 1.671875q0.65625 0.5 1.84375 0.5q0.875 0 1.75 -0.28125q0.890625 -0.296875 1.59375 -0.8125l1.078125 2.8125q-0.890625 0.65625 -2.140625 1.03125q-1.25 0.359375 -2.5 0.359375q-2.03125 0 -3.53125 -0.734375q-1.484375 -0.75 -2.28125 -2.140625q-0.796875 -1.390625 -0.796875 -3.265625q0 -1.78125 0.75 -3.171875q0.75 -1.40625 2.109375 -2.1875q1.359375 -0.78126526 3.0625 -0.78126526q2.546875 0 4.03125 1.6250153q1.484375 1.609375 1.484375 4.421875l0 0.953125zm-5.390625 -4.125q-1.703125 0 -1.953125 2.109375l3.765625 0q-0.140625 -2.109375 -1.8125 -2.109375zm15.277466 -2.8750153q2.109375 0 3.140625 1.2656403q1.046875 1.25 1.046875 3.8125l0 7.015625l-4.28125 0l0 -6.8125q0 -1.0625 -0.375 -1.53125q-0.359375 -0.484375 -1.109375 -0.484375q-0.96875 0 -1.53125 0.609375q-0.5625 0.609375 -0.5625 1.640625l0 6.578125l-4.265625 0l0 -11.8125l4.15625 0l0 1.59375q0.625 -0.921875 1.59375 -1.390625q0.984375 -0.48439026 2.1875 -0.48439026zm13.6293335 9.218765q0.53125 0 1.1875 -0.078125l-0.21875 3.046875q-0.765625 0.09375 -1.484375 0.09375q-2.890625 0 -4.203125 -1.203125q-1.296875 -1.21875 -1.296875 -3.765625l0 -3.875l-2.203125 0l0 -3.15625l2.203125 0l0 -3.4218903l4.265625 0l0 3.4218903l2.84375 0l0 3.15625l-2.84375 0l0 3.90625q0 1.875 1.75 1.875zm8.063721 -9.218765q2.796875 0 4.125 1.2812653q1.328125 1.28125 1.328125 4.0l0 6.8125l-4.0 0l0 -1.65625q-0.34375 0.859375 -1.140625 1.359375q-0.78125 0.484375 -1.890625 0.484375q-1.21875 0 -2.203125 -0.484375q-0.984375 -0.5 -1.546875 -1.375q-0.5625 -0.875 -0.5625 -1.96875q0 -1.28125 0.65625 -2.03125q0.65625 -0.765625 2.09375 -1.09375q1.4375 -0.34375 3.890625 -0.34375l0.65625 0l0 -0.28125q0 -0.890625 -0.421875 -1.234375q-0.40625 -0.34375 -1.4375 -0.34375q-0.8125 0 -1.890625 0.328125q-1.0625 0.3125 -2.0 0.8125l-1.078125 -2.796875q1.03125 -0.625 2.578125 -1.046875q1.5625 -0.42189026 2.84375 -0.42189026zm-0.5625 9.437515q0.859375 0 1.40625 -0.609375q0.5625 -0.625 0.5625 -1.578125l0 -0.296875l-0.390625 0q-1.53125 0 -2.1875 0.28125q-0.640625 0.28125 -0.640625 0.921875q0 0.546875 0.34375 0.921875q0.34375 0.359375 0.90625 0.359375zm13.1698 2.84375q-1.703125 0 -3.140625 -0.359375q-1.4375 -0.359375 -2.421875 -1.046875l1.078125 -2.90625q0.953125 0.625 2.171875 1.0q1.234375 0.359375 2.359375 0.359375q0.703125 0 1.078125 -0.203125q0.390625 -0.203125 0.390625 -0.5625q0 -0.3125 -0.28125 -0.46875q-0.28125 -0.171875 -1.109375 -0.375l-1.90625 -0.421875q-1.796875 -0.40625 -2.59375 -1.203125q-0.78125 -0.796875 -0.78125 -2.25q0 -1.140625 0.671875 -2.015625q0.671875 -0.875 1.875 -1.34375q1.21875 -0.48439026 2.75 -0.48439026q1.28125 0 2.53125 0.37501526q1.265625 0.359375 2.296875 1.03125l-1.109375 2.796875q-0.953125 -0.609375 -1.9375 -0.921875q-0.96875 -0.328125 -1.828125 -0.328125q-0.6875 0 -1.078125 0.21875q-0.390625 0.203125 -0.390625 0.625q0 0.234375 0.234375 0.390625q0.25 0.15625 0.859375 0.296875l1.984375 0.453125q1.875 0.40625 2.703125 1.265625q0.84375 0.84375 0.84375 2.3125q0 1.75 -1.40625 2.765625q-1.390625 1.0 -3.84375 1.0zm11.108765 -4.5625l0 2.765625q0 1.53125 -0.546875 2.78125q-0.546875 1.25 -1.875 2.546875l-1.609375 -1.265625q1.296875 -1.296875 1.609375 -2.453125l-2.015625 0l0 -4.375l4.4375 0zm15.048218 4.5625q-3.015625 0 -4.71875 -1.625q-1.703125 -1.640625 -1.703125 -4.4375q0 -1.859375 0.828125 -3.265625q0.828125 -1.421875 2.328125 -2.1875q1.5 -0.76564026 3.453125 -0.76564026q1.328125 0 2.5625 0.39064026q1.234375 0.375 2.0 1.015625l-1.078125 2.890625q-0.59375 -0.484375 -1.453125 -0.78125q-0.84375 -0.296875 -1.59375 -0.296875q-1.296875 0 -1.984375 0.71875q-0.671875 0.71875 -0.671875 2.1875q0 1.453125 0.671875 2.203125q0.6875 0.734375 1.984375 0.734375q0.75 0 1.59375 -0.296875q0.859375 -0.296875 1.453125 -0.796875l1.078125 2.90625q-0.8125 0.671875 -2.078125 1.046875q-1.25 0.359375 -2.671875 0.359375zm12.078064 0q-1.953125 0 -3.4375 -0.75q-1.46875 -0.75 -2.265625 -2.140625q-0.796875 -1.40625 -0.796875 -3.265625q0 -1.875 0.796875 -3.25q0.796875 -1.390625 2.265625 -2.125q1.46875 -0.75001526 3.4375 -0.75001526q1.96875 0 3.421875 0.75001526q1.46875 0.734375 2.265625 2.125q0.8125 1.375 0.8125 3.25q0 1.859375 -0.8125 3.265625q-0.796875 1.390625 -2.265625 2.140625q-1.453125 0.75 -3.421875 0.75zm0 -3.1875q2.28125 0 2.28125 -2.96875q0 -2.984375 -2.28125 -2.984375q-2.28125 0 -2.28125 2.984375q0 2.96875 2.28125 2.96875zm16.384338 -9.093765q2.109375 0 3.140625 1.2656403q1.046875 1.25 1.046875 3.8125l0 7.015625l-4.28125 0l0 -6.8125q0 -1.0625 -0.375 -1.53125q-0.359375 -0.484375 -1.109375 -0.484375q-0.96875 0 -1.53125 0.609375q-0.5625 0.609375 -0.5625 1.640625l0 6.578125l-4.265625 0l0 -11.8125l4.15625 0l0 1.59375q0.625 -0.921875 1.59375 -1.390625q0.984375 -0.48439026 2.1875 -0.48439026zm15.9105835 -5.640625l4.515625 0l0 3.90625l-4.515625 0l0 -3.90625zm-4.03125 5.9218903l8.421875 0l0 11.8125l-4.265625 0l0 -8.65625l-4.15625 0l0 8.65625l-4.265625 0l0 -8.65625l-2.203125 0l0 -3.15625l2.203125 0q0.125 -2.5468903 1.671875 -3.8125153q1.546875 -1.265625 4.515625 -1.390625l1.15625 -0.046875l0.1875 3.09375l-1.125 0.046875q-1.265625 0.046875 -1.703125 0.453125q-0.4375 0.390625 -0.4375 1.203125l0 0.45314026zm20.020874 3.203125l-2.328125 0.234375q-1.390625 0.140625 -1.953125 0.75q-0.546875 0.59375 -0.546875 1.703125l0 5.921875l-4.265625 0l0 -11.8125l4.046875 0l0 2.046875q0.421875 -1.078125 1.34375 -1.640625q0.9375 -0.56251526 2.28125 -0.64064026l1.1875 -0.09375l0.234375 3.5312653zm6.376831 -3.4843903q2.796875 0 4.125 1.2812653q1.328125 1.28125 1.328125 4.0l0 6.8125l-4.0 0l0 -1.65625q-0.34375 0.859375 -1.140625 1.359375q-0.78125 0.484375 -1.890625 0.484375q-1.21875 0 -2.203125 -0.484375q-0.984375 -0.5 -1.546875 -1.375q-0.5625 -0.875 -0.5625 -1.96875q0 -1.28125 0.65625 -2.03125q0.65625 -0.765625 2.09375 -1.09375q1.4375 -0.34375 3.890625 -0.34375l0.65625 0l0 -0.28125q0 -0.890625 -0.421875 -1.234375q-0.40625 -0.34375 -1.4375 -0.34375q-0.8125 0 -1.890625 0.328125q-1.0625 0.3125 -2.0 0.8125l-1.078125 -2.796875q1.03125 -0.625 2.578125 -1.046875q1.5625 -0.42189026 2.84375 -0.42189026zm-0.5625 9.437515q0.859375 0 1.40625 -0.609375q0.5625 -0.625 0.5625 -1.578125l0 -0.296875l-0.390625 0q-1.53125 0 -2.1875 0.28125q-0.640625 0.28125 -0.640625 0.921875q0 0.546875 0.34375 0.921875q0.34375 0.359375 0.90625 0.359375zm22.330688 -0.21875q0.53125 0 1.1875 -0.078125l-0.21875 3.046875q-0.765625 0.09375 -1.484375 0.09375q-2.890625 0 -4.203125 -1.203125q-1.296875 -1.21875 -1.296875 -3.765625l0 -3.875l-2.203125 0l0 -3.15625l2.203125 0l0 -3.4218903l4.265625 0l0 3.4218903l2.84375 0l0 3.15625l-2.84375 0l0 3.90625q0 1.875 1.75 1.875zm14.579346 -8.9375l0 11.8125l-4.15625 0l0 -1.578125q-0.546875 0.859375 -1.40625 1.3125q-0.84375 0.453125 -1.953125 0.453125q-2.28125 0 -3.390625 -1.25q-1.09375 -1.265625 -1.09375 -3.828125l0 -6.921875l4.265625 0l0 7.015625q0 1.71875 1.484375 1.71875q0.875 0 1.421875 -0.609375q0.546875 -0.625 0.546875 -1.640625l0 -6.484375l4.28125 0zm14.993713 -5.1093903l0 16.92189l-4.203125 0l0 -1.609375q-0.5 0.84375 -1.46875 1.328125q-0.96875 0.46875 -2.15625 0.46875q-1.5 0 -2.6875 -0.78125q-1.1875 -0.78125 -1.859375 -2.1875q-0.671875 -1.421875 -0.671875 -3.25q0 -1.8125 0.65625 -3.1875q0.65625 -1.390625 1.84375 -2.125q1.1875 -0.75001526 2.71875 -0.75001526q1.140625 0 2.078125 0.45314026q0.953125 0.453125 1.484375 1.21875l0 -6.5000153l4.265625 0zm-6.53125 13.92189q1.140625 0 1.734375 -0.765625q0.59375 -0.765625 0.59375 -2.203125q0 -1.421875 -0.59375 -2.171875q-0.59375 -0.765625 -1.734375 -0.765625q-1.09375 0 -1.703125 0.75q-0.59375 0.734375 -0.59375 2.125q0 1.453125 0.609375 2.25q0.609375 0.78125 1.6875 0.78125zm14.984314 3.1875q-1.953125 0 -3.4375 -0.75q-1.46875 -0.75 -2.265625 -2.140625q-0.796875 -1.40625 -0.796875 -3.265625q0 -1.875 0.796875 -3.25q0.796875 -1.390625 2.265625 -2.125q1.46875 -0.75001526 3.4375 -0.75001526q1.96875 0 3.421875 0.75001526q1.46875 0.734375 2.265625 2.125q0.8125 1.375 0.8125 3.25q0 1.859375 -0.8125 3.265625q-0.796875 1.390625 -2.265625 2.140625q-1.453125 0.75 -3.421875 0.75zm0 -3.1875q2.28125 0 2.28125 -2.96875q0 -2.984375 -2.28125 -2.984375q-2.28125 0 -2.28125 2.984375q0 2.96875 2.28125 2.96875zm8.036072 -1.375l4.4375 0l0 4.375l-4.4375 0l0 -4.375z" fill-rule="nonzero"/></g></svg>